<?xml version="1.0" encoding="utf-8"?>
<!-- Generator: Adobe Illustrator 17.0.0, SVG Export Plug-In . SVG Version: 6.00 Build 0)  -->
<!DOCTYPE svg PUBLIC "-//W3C//DTD SVG 1.1//EN" "http://www.w3.org/Graphics/SVG/1.1/DTD/svg11.dtd">
<svg version="1.1" id="Layer_1" xmlns="http://www.w3.org/2000/svg" xmlns:xlink="http://www.w3.org/1999/xlink" x="0px" y="0px"
	 width="770.795px" height="618.207px" viewBox="0 0 770.795 618.207" enable-background="new 0 0 770.795 618.207"
	 xml:space="preserve">
<symbol  id="Nuevo_símbolo_4" viewBox="-998.474 -561.792 1996.946 1123.583">
	<polygon fill-rule="evenodd" clip-rule="evenodd" fill="#94C1CF" points="-998.474,561.791 998.472,561.791 998.472,-561.792 
		-998.474,-561.792 	"/>
</symbol>
<g id="iMac_x5F_FRONT_x5F_FLAT">
	<path fill-rule="evenodd" clip-rule="evenodd" fill="#D1D5DD" d="M770.795,459.529v52.022c0,10.535-8.54,19.075-19.075,19.075
		H19.075C8.54,530.626,0,522.086,0,511.551v-52.022H770.795z"/>
	<g>
		<path fill="#231F20" d="M770.795,19.075C770.795,8.54,762.255,0,751.72,0H19.075C8.54,0,0,8.54,0,19.075v440.454h770.795V19.075z"
			/>
	</g>
	<g>
		<path fill-rule="evenodd" clip-rule="evenodd" fill="#414142" d="M373.353,15.579c0.331,0,0.598,0.268,0.598,0.598
			c0,0.33-0.268,0.598-0.598,0.598c-0.33,0-0.598-0.268-0.598-0.598C372.755,15.847,373.023,15.579,373.353,15.579z"/>
		<g>
			<path fill-rule="evenodd" clip-rule="evenodd" fill="#414142" d="M385.397,13.17c1.661,0,3.008,1.346,3.008,3.008
				s-1.347,3.008-3.008,3.008s-3.008-1.346-3.008-3.008S383.736,13.17,385.397,13.17z"/>
		</g>
	</g>
	<polygon fill-rule="evenodd" clip-rule="evenodd" fill="#E6E7E9" points="0,459.529 0,459.666 0,459.803 770.795,459.803 
		770.795,459.666 770.795,459.529 	"/>
	<path fill-rule="evenodd" clip-rule="evenodd" fill="#D1D5DD" d="M484.77,615.959c-54.326,0-154.933,0-198.745,0
		c-17.501,0-17.673-1.389-17.673-1.389l23.635-6.284c0,0,5.851-1.797,8.325-6.4c3.791-7.051,4.785-17.985,4.785-17.985l3.799-53.275
		H461.9l3.799,53.275c0,0,0.994,10.934,4.784,17.985c2.474,4.603,8.325,6.4,8.325,6.4l23.635,6.284
		C502.443,614.57,502.339,615.959,484.77,615.959z"/>
	<path opacity="0.3" fill-rule="evenodd" clip-rule="evenodd" fill="#706869" d="M484.77,615.959c-54.326,0-154.933,0-198.745,0
		c-17.501,0-17.673-1.389-17.673-1.389l23.635-6.284c0,0,5.851-1.797,8.325-6.4c3.791-7.051,4.785-17.985,4.785-17.985l3.799-53.275
		H461.9l3.799,53.275c0,0,0.994,10.934,4.784,17.985c2.474,4.603,8.325,6.4,8.325,6.4l23.635,6.284
		C502.443,614.57,502.339,615.959,484.77,615.959z"/>
	<path fill-rule="evenodd" clip-rule="evenodd" fill="#D1D5DD" d="M268.352,616.185c0,0,2.931,2.023,17.673,2.023
		c43.813,0,144.419,0,198.745,0c13.085,0,17.673-2.03,17.673-2.03v-1.614c0,0-0.05,1.389-17.673,1.389
		c-54.326,0-154.933,0-198.745,0c-17.688,0-17.673-1.389-17.673-1.389V616.185z"/>
	<path opacity="0.5" fill-rule="evenodd" clip-rule="evenodd" fill="#706869" d="M268.352,616.185c0,0,2.931,2.023,17.673,2.023
		c43.813,0,144.419,0,198.745,0c13.085,0,17.673-2.03,17.673-2.03v-1.614c0,0-0.05,1.389-17.673,1.389
		c-54.326,0-154.933,0-198.745,0c-17.688,0-17.673-1.389-17.673-1.389V616.185z"/>
	
		<use xlink:href="#Nuevo_símbolo_4"  width="1996.946" height="1123.583" id="XMLID_2_" x="-998.474" y="-561.792" transform="matrix(0.3548 0 0 -0.3548 386.5571 226.6114)" overflow="visible"/>
</g>
</svg>
